<svg width="36" height="36" viewBox="0 0 36 36" fill="none" xmlns="http://www.w3.org/2000/svg">
<path d="M17.278 29.2028C17.6602 29.6015 18.2932 29.6148 18.6919 29.2326C19.0906 28.8504 19.1039 28.2174 18.7217 27.8187L17.278 29.2028ZM9.53084 19.6773L8.80323 20.3633L8.809 20.3693L9.53084 19.6773ZM9.53084 9.44877L8.8247 8.7407C8.81744 8.74794 8.81029 8.75529 8.80326 8.76275L9.53084 9.44877ZM17.4372 9.48348C17.8938 9.79421 18.5158 9.67597 18.8266 9.21938C19.1373 8.7628 19.019 8.14077 18.5625 7.83005L17.4372 9.48348ZM17.278 27.8187C16.8958 28.2174 16.9091 28.8504 17.3078 29.2326C17.7065 29.6148 18.3395 29.6015 18.7217 29.2028L17.278 27.8187ZM23.6252 24.0878C24.0074 23.6891 23.994 23.0561 23.5954 22.6739C23.1967 22.2917 22.5637 22.3051 22.1815 22.7037L23.6252 24.0878ZM17.278 27.8187C16.8958 28.2174 16.9091 28.8504 17.3078 29.2326C17.7064 29.6148 18.3395 29.6015 18.7217 29.2028L17.278 27.8187ZM26.4688 19.6773L27.1907 20.3693L27.1964 20.3633L26.4688 19.6773ZM26.4688 9.44877L27.1964 8.76275C27.1894 8.75529 27.1822 8.74794 27.175 8.7407L26.4688 9.44877ZM17.4372 7.83005C16.9806 8.14077 16.8624 8.7628 17.1731 9.21938C17.4839 9.67597 18.1059 9.79421 18.5625 9.48348L17.4372 7.83005ZM17.278 29.2028C17.6602 29.6015 18.2932 29.6148 18.6919 29.2326C19.0905 28.8504 19.1039 28.2174 18.7217 27.8187L17.278 29.2028ZM13.8182 22.7037C13.436 22.3051 12.803 22.2917 12.4043 22.6739C12.0056 23.0561 11.9923 23.6891 12.3745 24.0878L13.8182 22.7037ZM18.5312 7.80962C18.0633 7.51616 17.4462 7.65754 17.1527 8.1254C16.8592 8.59327 17.0006 9.21045 17.4685 9.50391L18.5312 7.80962ZM19.3378 9.74727L18.6153 10.4386L18.6158 10.4391L19.3378 9.74727ZM20.3978 12.2991C20.7798 12.6979 21.4129 12.7114 21.8116 12.3294C22.2104 11.9473 22.224 11.3143 21.8419 10.9155L20.3978 12.2991ZM18.7217 27.8187L10.2527 18.9852L8.809 20.3693L17.278 29.2028L18.7217 27.8187ZM10.2584 18.9912C7.91386 16.5046 7.91386 12.6214 10.2584 10.1348L8.80326 8.76275C5.73225 12.0199 5.73225 17.1062 8.80326 20.3633L10.2584 18.9912ZM10.237 10.1568C12.1648 8.23424 15.1864 7.95167 17.4372 9.48348L18.5625 7.83005C15.5183 5.75839 11.4319 6.14055 8.8247 8.7407L10.237 10.1568ZM18.7217 29.2028L23.6252 24.0878L22.1815 22.7037L17.278 27.8187L18.7217 29.2028ZM18.7217 29.2028L27.1907 20.3693L25.747 18.9852L17.278 27.8187L18.7217 29.2028ZM27.1964 20.3633C30.2674 17.1062 30.2674 12.0199 27.1964 8.76275L25.7413 10.1348C28.0858 12.6214 28.0858 16.5046 25.7413 18.9912L27.1964 20.3633ZM27.175 8.7407C24.5678 6.14055 20.4813 5.75839 17.4372 7.83005L18.5625 9.48348C20.8133 7.95167 23.8349 8.23424 25.7627 10.1568L27.175 8.7407ZM18.7217 27.8187L13.8182 22.7037L12.3745 24.0878L17.278 29.2028L18.7217 27.8187ZM17.4685 9.50391C17.8879 9.76696 18.2731 10.0809 18.6153 10.4386L20.0604 9.05593C19.604 8.57899 19.0904 8.16037 18.5312 7.80962L17.4685 9.50391ZM18.6158 10.4391L20.3978 12.2991L21.8419 10.9155L20.0599 9.05546L18.6158 10.4391Z" fill="#6F4C9A"/>
</svg>
