<svg width="34" height="34" viewBox="0 0 34 34" fill="none" xmlns="http://www.w3.org/2000/svg">
<path d="M27.2714 12.7911C27.2922 13.3775 27.7845 13.836 28.371 13.8151C28.9574 13.7942 29.4159 13.3019 29.395 12.7155L27.2714 12.7911ZM22.2613 7.08661V8.14911C22.2732 8.14911 22.285 8.14891 22.2969 8.14851L22.2613 7.08661ZM13.155 7.08661L13.1195 8.14851C13.1314 8.14891 13.1432 8.14911 13.155 8.14911V7.08661ZM6.02136 12.7155C6.00046 13.3019 6.45894 13.7942 7.04537 13.8151C7.6318 13.836 8.12412 13.3775 8.145 12.7911L6.02136 12.7155ZM29.3957 12.7533C29.3957 12.1665 28.92 11.6908 28.3332 11.6908C27.7464 11.6908 27.2707 12.1665 27.2707 12.7533H29.3957ZM28.3332 21.2533L29.395 21.291C29.3954 21.2785 29.3957 21.2659 29.3957 21.2533H28.3332ZM22.2613 26.92L22.2969 25.8581C22.285 25.8576 22.2732 25.8575 22.2613 25.8575V26.92ZM13.155 26.92V25.8575C13.1432 25.8575 13.1314 25.8576 13.1195 25.8581L13.155 26.92ZM7.08318 21.2533H6.02068C6.02068 21.2659 6.0209 21.2785 6.02136 21.291L7.08318 21.2533ZM8.14568 12.7533C8.14568 12.1665 7.66998 11.6908 7.08318 11.6908C6.49638 11.6908 6.02068 12.1665 6.02068 12.7533H8.14568ZM28.8691 13.6707C29.3758 13.3747 29.5466 12.724 29.2506 12.2173C28.9547 11.7107 28.304 11.5399 27.7973 11.8358L28.8691 13.6707ZM20.8758 17.1096L20.3399 16.192L20.3311 16.1972L20.8758 17.1096ZM14.5405 17.1096L15.0854 16.1972L15.0764 16.1921L14.5405 17.1096ZM7.6191 11.8358C7.11242 11.5399 6.46173 11.7107 6.16574 12.2173C5.86976 12.724 6.04057 13.3747 6.54725 13.6707L7.6191 11.8358ZM29.395 12.7155C29.2588 8.89002 26.0516 5.89683 22.2258 6.0247L22.2969 8.14851C24.9515 8.05978 27.1769 10.1367 27.2714 12.7911L29.395 12.7155ZM22.2613 6.02411H13.155V8.14911H22.2613V6.02411ZM13.1905 6.0247C9.36478 5.89683 6.15757 8.89002 6.02136 12.7155L8.145 12.7911C8.23953 10.1367 10.4649 8.05978 13.1195 8.14851L13.1905 6.0247ZM27.2707 12.7533V21.2533H29.3957V12.7533H27.2707ZM27.2714 21.2155C27.1769 23.8699 24.9515 25.9467 22.2969 25.8581L22.2258 27.9818C26.0516 28.1097 29.2588 25.1166 29.395 21.291L27.2714 21.2155ZM22.2613 25.8575H13.155V27.9825H22.2613V25.8575ZM13.1195 25.8581C10.4649 25.9467 8.23952 23.8699 8.145 21.2155L6.02136 21.291C6.15757 25.1166 9.36478 28.1097 13.1905 27.9818L13.1195 25.8581ZM8.14568 21.2533V12.7533H6.02068V21.2533H8.14568ZM27.7973 11.8358L20.3399 16.192L21.4118 18.027L28.8691 13.6707L27.7973 11.8358ZM20.3311 16.1972C18.7156 17.1621 16.7009 17.1621 15.0854 16.1972L13.9957 18.0218C16.2823 19.3873 19.1341 19.3873 21.4206 18.0218L20.3311 16.1972ZM15.0764 16.1921L7.6191 11.8358L6.54725 13.6707L14.0046 18.027L15.0764 16.1921Z" fill="white"/>
</svg>
