<svg width="34" height="34" viewBox="0 0 34 34" fill="none" xmlns="http://www.w3.org/2000/svg">
<path d="M15.9376 26.9166C15.9376 27.5034 16.4133 27.9791 17.0001 27.9791C17.5869 27.9791 18.0626 27.5034 18.0626 26.9166H15.9376ZM18.0626 15.5833C18.0626 14.9965 17.5869 14.5208 17.0001 14.5208C16.4133 14.5208 15.9376 14.9965 15.9376 15.5833H18.0626ZM21.2501 8.14575C21.8369 8.14575 22.3126 7.67005 22.3126 7.08325C22.3126 6.49645 21.8369 6.02075 21.2501 6.02075V8.14575ZM15.9376 15.5833C15.9376 16.17 16.4133 16.6458 17.0001 16.6458C17.5869 16.6458 18.0626 16.17 18.0626 15.5833H15.9376ZM17.0001 14.5208C16.4133 14.5208 15.9376 14.9965 15.9376 15.5833C15.9376 16.17 16.4133 16.6458 17.0001 16.6458V14.5208ZM19.8334 16.6458C20.4202 16.6458 20.8959 16.17 20.8959 15.5833C20.8959 14.9965 20.4202 14.5208 19.8334 14.5208V16.6458ZM17.0001 16.6458C17.5869 16.6458 18.0626 16.17 18.0626 15.5833C18.0626 14.9965 17.5869 14.5208 17.0001 14.5208V16.6458ZM14.1667 14.5208C13.58 14.5208 13.1042 14.9965 13.1042 15.5833C13.1042 16.17 13.58 16.6458 14.1667 16.6458V14.5208ZM18.0626 26.9166V15.5833H15.9376V26.9166H18.0626ZM21.2501 6.02075C18.316 6.02075 15.9376 8.39924 15.9376 11.3333H18.0626C18.0626 9.57285 19.4897 8.14575 21.2501 8.14575V6.02075ZM15.9376 11.3333V15.5833H18.0626V11.3333H15.9376ZM17.0001 16.6458H19.8334V14.5208H17.0001V16.6458ZM17.0001 14.5208H14.1667V16.6458H17.0001V14.5208Z" fill="white"/>
</svg>
