<svg width="34" height="34" viewBox="0 0 34 34" fill="none" xmlns="http://www.w3.org/2000/svg">
<path fill-rule="evenodd" clip-rule="evenodd" d="M21.2507 7.08301H12.7507C9.62104 7.08301 7.08398 9.62006 7.08398 12.7497V21.2497C7.08398 24.3792 9.62104 26.9163 12.7507 26.9163H21.2507C24.3802 26.9163 26.9173 24.3792 26.9173 21.2497V12.7497C26.9173 9.62006 24.3802 7.08301 21.2507 7.08301Z" stroke="#F8F7FA" stroke-width="2" stroke-linecap="round" stroke-linejoin="round"/>
<path fill-rule="evenodd" clip-rule="evenodd" d="M17 21.25C14.6527 21.25 12.75 19.3473 12.75 17C12.75 14.6527 14.6527 12.75 17 12.75C19.3473 12.75 21.25 14.6527 21.25 17C21.25 18.1271 20.8022 19.2082 20.0052 20.0052C19.2082 20.8022 18.1271 21.25 17 21.25Z" stroke="#F8F7FA" stroke-width="2" stroke-linecap="round" stroke-linejoin="round"/>
<path d="M22.6667 9.91675C21.8843 9.91675 21.25 10.551 21.25 11.3334C21.25 12.1158 21.8843 12.7501 22.6667 12.7501C23.4491 12.7501 24.0833 12.1158 24.0833 11.3334C24.0833 10.551 23.4491 9.91675 22.6667 9.91675Z" fill="#F8F7FA"/>
<path d="M22.6673 10.6252C22.2761 10.6252 21.959 10.9424 21.959 11.3336C21.959 11.7248 22.2761 12.0419 22.6673 12.0419C23.0585 12.0419 23.3757 11.7248 23.3757 11.3336C23.3757 10.9424 23.0585 10.6252 22.6673 10.6252Z" stroke="#F8F7FA" stroke-width="2" stroke-linecap="round"/>
</svg>
