<svg width="34" height="34" viewBox="0 0 34 34" fill="none" xmlns="http://www.w3.org/2000/svg">
<path d="M14.6053 20.1599C14.0706 19.9183 13.4411 20.1557 13.1994 20.6903C12.9576 21.225 13.1951 21.8544 13.7298 22.0962L14.6053 20.1599ZM17.0008 21.7373L17.002 22.7999L17.0191 22.7996L17.0008 21.7373ZM24.0842 14.4103L23.0218 14.3925C23.0217 14.4043 23.0217 14.4162 23.0218 14.428L24.0842 14.4103ZM17.0008 7.08326L17.0191 6.02091C17.0069 6.0207 16.9947 6.0207 16.9827 6.02091L17.0008 7.08326ZM9.91753 14.4103L10.98 14.4132C10.98 14.4063 10.98 14.3995 10.9799 14.3925L9.91753 14.4103ZM10.177 18.9944C10.4907 19.4904 11.147 19.6382 11.6429 19.3245C12.1388 19.0107 12.2866 18.3545 11.9729 17.8586L10.177 18.9944ZM15.1995 21.3807C15.3391 20.8108 14.9902 20.2356 14.4201 20.096C13.8501 19.9565 13.275 20.3056 13.1355 20.8755L15.1995 21.3807ZM11.7188 26.664C11.5793 27.2339 11.9283 27.8091 12.4983 27.9486C13.0683 28.0882 13.6434 27.7391 13.7829 27.1692L11.7188 26.664ZM13.1206 20.9469C13.0205 21.525 13.4081 22.0748 13.9863 22.175C14.5645 22.2752 15.1144 21.8876 15.2144 21.3093L13.1206 20.9469ZM16.6311 13.1267C16.7312 12.5485 16.3436 11.9986 15.7655 11.8985C15.1872 11.7984 14.6374 12.186 14.5373 12.7642L16.6311 13.1267ZM13.7298 22.0962C14.758 22.561 15.8736 22.8012 17.002 22.7999L16.9997 20.6748C16.1741 20.6756 15.3576 20.5001 14.6053 20.1599L13.7298 22.0962ZM17.0191 22.7996C21.5845 22.7213 25.2226 18.958 25.1465 14.3925L23.0218 14.428C23.0783 17.8203 20.3751 20.6167 16.9827 20.6749L17.0191 22.7996ZM25.1465 14.428C25.2226 9.86253 21.5845 6.09925 17.0191 6.02091L16.9827 8.1456C20.3751 8.20381 23.0783 11.0002 23.0218 14.3925L25.1465 14.428ZM16.9827 6.02091C12.4173 6.09925 8.77913 9.86253 8.85517 14.428L10.9799 14.3925C10.9234 11.0002 13.6267 8.20381 17.0191 8.1456L16.9827 6.02091ZM8.85503 14.4073C8.85049 16.0309 9.30907 17.6223 10.177 18.9944L11.9729 17.8586C11.321 16.8279 10.9766 15.6327 10.98 14.4132L8.85503 14.4073ZM13.1355 20.8755L11.7188 26.664L13.7829 27.1692L15.1995 21.3807L13.1355 20.8755ZM15.2144 21.3093L16.6311 13.1267L14.5373 12.7642L13.1206 20.9469L15.2144 21.3093Z" fill="white"/>
</svg>
