<svg width="34" height="34" viewBox="0 0 34 34" fill="none" xmlns="http://www.w3.org/2000/svg">
<g clip-path="url(#clip0_3955_575)">
<path fill-rule="evenodd" clip-rule="evenodd" d="M19.75 6C20.1257 6 20.4861 6.12754 20.7517 6.35455C21.0174 6.58157 21.1667 6.88947 21.1667 7.21053C21.1675 8.32654 21.6189 9.40813 22.4449 10.2727C23.2708 11.1372 24.4205 11.7317 25.7 11.9558C26.0682 12.02 26.3915 12.2066 26.5987 12.4744C26.8059 12.7423 26.8801 13.0696 26.805 13.3842C26.7299 13.6988 26.5115 13.9751 26.198 14.1522C25.8845 14.3292 25.5015 14.3926 25.1333 14.3284C23.6575 14.0699 22.2885 13.4809 21.1667 12.6216V22.9474C21.1667 24.1445 20.7512 25.3147 19.9729 26.31C19.1946 27.3054 18.0883 28.0812 16.794 28.5393C15.4997 28.9974 14.0755 29.1172 12.7014 28.8837C11.3274 28.6502 10.0653 28.0737 9.07466 27.2272C8.08404 26.3807 7.40942 25.3023 7.13611 24.1282C6.8628 22.9541 7.00307 21.7371 7.53919 20.6311C8.07531 19.5252 8.9832 18.5799 10.148 17.9148C11.3129 17.2497 12.6824 16.8947 14.0833 16.8947C14.4591 16.8947 14.8194 17.0223 15.0851 17.2493C15.3507 17.4763 15.5 17.7842 15.5 18.1053C15.5 18.4263 15.3507 18.7342 15.0851 18.9612C14.8194 19.1883 14.4591 19.3158 14.0833 19.3158C13.2428 19.3158 12.4211 19.5288 11.7222 19.9278C11.0233 20.3269 10.4785 20.894 10.1568 21.5576C9.83518 22.2212 9.75101 22.9514 9.915 23.6559C10.079 24.3603 10.4838 25.0074 11.0781 25.5153C11.6725 26.0232 12.4298 26.369 13.2542 26.5092C14.0786 26.6493 14.9332 26.5774 15.7097 26.3025C16.4863 26.0276 17.1501 25.5622 17.6171 24.965C18.0841 24.3678 18.3333 23.6656 18.3333 22.9474V7.21053C18.3333 6.88947 18.4826 6.58157 18.7483 6.35455C19.0139 6.12754 19.3743 6 19.75 6Z" fill="white"/>
</g>
<defs>
<clipPath id="clip0_3955_575">
<rect width="34" height="34" fill="white"/>
</clipPath>
</defs>
</svg>
