<svg width="34" height="34" viewBox="0 0 34 34" fill="none" xmlns="http://www.w3.org/2000/svg">
<g clip-path="url(#clip0_3955_568)">
<path fill-rule="evenodd" clip-rule="evenodd" d="M25.0298 26.9206C28.2944 27.0394 31.0393 24.4941 31.1668 21.2298V12.778C31.0393 9.51382 28.2944 6.96841 25.0298 7.08725H8.9705C5.70597 6.96841 2.96097 9.51382 2.8335 12.778V21.2298C2.96097 24.4941 5.70597 27.0394 8.9705 26.9206H25.0298Z" stroke="white" stroke-width="1.5" stroke-linecap="round" stroke-linejoin="round"/>
<path fill-rule="evenodd" clip-rule="evenodd" d="M16.3028 13.002L20.7809 16.045C21.0711 16.2144 21.2494 16.5251 21.2494 16.861C21.2494 17.197 21.0711 17.5077 20.7809 17.677L16.3028 21.0062C15.4528 21.5827 14.1665 21.0912 14.1665 20.1902V13.8152C14.1665 12.9185 15.4543 12.4255 16.3028 13.002Z" stroke="white" stroke-width="1.5" stroke-linecap="round" stroke-linejoin="round"/>
</g>
<defs>
<clipPath id="clip0_3955_568">
<rect width="34" height="34" fill="white"/>
</clipPath>
</defs>
</svg>
