<svg width="23" height="24" viewBox="0 0 23 24" fill="none" xmlns="http://www.w3.org/2000/svg">
<path fill-rule="evenodd" clip-rule="evenodd" d="M2.3076 3.53731C3.6276 2.14681 4.0941 1.75681 4.6566 1.57531C5.04588 1.47331 5.45413 1.46764 5.8461 1.55881C6.3621 1.70881 6.49859 1.82281 8.19059 3.50881C9.67705 4.98931 9.82555 5.14981 9.96805 5.43931C10.2406 5.94748 10.2832 6.5478 10.085 7.08931C9.93505 7.50181 9.72205 7.77481 8.82055 8.67931L8.23259 9.26889C8.07817 9.42579 8.04189 9.66399 8.1426 9.85989C9.44905 12.0886 11.3025 13.9472 13.5276 15.2599C13.7838 15.397 14.0992 15.3527 14.3076 15.1504L14.8731 14.5939C15.2226 14.2355 15.5927 13.898 15.9815 13.5829C16.5923 13.2079 17.3533 13.1744 17.9945 13.4944C18.308 13.6444 18.4116 13.7374 19.9446 15.2674C21.5256 16.8439 21.5705 16.8934 21.7445 17.2549C22.072 17.8532 22.0685 18.578 21.7355 19.1734C21.566 19.5094 21.4625 19.6309 20.573 20.5399C20.036 21.0889 19.5306 21.5899 19.4496 21.6634C18.7158 22.2709 17.7743 22.5689 16.8245 22.4944C15.0869 22.336 13.405 21.7988 11.897 20.9209C8.55685 19.151 5.7132 16.5725 3.6261 13.4209C3.17151 12.7612 2.76736 12.0682 2.4171 11.3479C1.47747 9.73734 0.992246 7.90222 1.0131 6.03781C1.08483 5.06245 1.55257 4.15894 2.3076 3.53731Z" stroke="#1C1817" stroke-width="1.5" stroke-linecap="round" stroke-linejoin="round"/>
</svg>
