<svg width="23" height="24" viewBox="0 0 23 24" fill="none" xmlns="http://www.w3.org/2000/svg">
<path d="M10.9587 23.0244C11.2454 23.3234 11.7201 23.3334 12.0191 23.0468C12.3182 22.7601 12.3281 22.2854 12.0414 21.9863L10.9587 23.0244ZM3.03109 13.6719L2.48538 14.1864L2.4897 14.1909L3.03109 13.6719ZM3.03109 3.44341L2.50147 2.91235C2.49603 2.91778 2.49067 2.9233 2.48539 2.9289L3.03109 3.44341ZM11.0781 3.27145C11.4206 3.50449 11.8871 3.41581 12.1202 3.07338C12.3531 2.73093 12.2645 2.26441 11.922 2.03137L11.0781 3.27145ZM10.9587 21.9864C10.6721 22.2854 10.682 22.7601 10.9811 23.0468C11.28 23.3334 11.7548 23.3234 12.0414 23.0244L10.9587 21.9864ZM16.9449 17.9094C17.2316 17.6103 17.2215 17.1356 16.9226 16.8489C16.6236 16.5623 16.1489 16.5723 15.8622 16.8714L16.9449 17.9094ZM10.9587 21.9864C10.6721 22.2854 10.682 22.7601 10.9811 23.0468C11.28 23.3334 11.7548 23.3234 12.0414 23.0244L10.9587 21.9864ZM19.9691 13.6719L20.5104 14.1909L20.5148 14.1864L19.9691 13.6719ZM19.9691 3.44341L20.5148 2.9289C20.5095 2.9233 20.5041 2.91778 20.4987 2.91235L19.9691 3.44341ZM11.0781 2.03137C10.7357 2.26441 10.647 2.73093 10.88 3.07338C11.1131 3.41581 11.5796 3.50449 11.922 3.27145L11.0781 2.03137ZM10.9587 23.0244C11.2454 23.3234 11.7201 23.3334 12.0191 23.0468C12.3182 22.7601 12.3281 22.2854 12.0414 21.9863L10.9587 23.0244ZM7.13799 16.8714C6.85135 16.5723 6.37657 16.5623 6.07756 16.8489C5.77855 17.1356 5.76853 17.6103 6.05518 17.9094L7.13799 16.8714ZM11.8986 2.01604C11.5476 1.79595 11.0849 1.90198 10.8647 2.25289C10.6446 2.60379 10.7507 3.06667 11.1015 3.28677L11.8986 2.01604ZM14.0786 6.12076C14.3651 6.41986 14.8398 6.43003 15.1389 6.14347C15.438 5.85691 15.4482 5.38215 15.1616 5.08305L14.0786 6.12076ZM12.0414 21.9863L3.57247 13.1528L2.4897 14.1909L10.9587 23.0244L12.0414 21.9863ZM3.57678 13.1574C1.14139 10.5744 1.14139 6.54087 3.57678 3.95791L2.48539 2.9289C-0.494806 6.0897 -0.494821 11.0256 2.48538 14.1864L3.57678 13.1574ZM3.5607 3.97446C5.57344 1.96717 8.72809 1.67215 11.0781 3.27145L11.922 2.03137C8.97709 0.0271932 5.02377 0.396898 2.50147 2.91235L3.5607 3.97446ZM12.0414 23.0244L16.9449 17.9094L15.8622 16.8714L10.9587 21.9864L12.0414 23.0244ZM12.0414 23.0244L20.5104 14.1909L19.4277 13.1528L10.9587 21.9864L12.0414 23.0244ZM20.5148 14.1864C23.495 11.0256 23.495 6.0897 20.5148 2.9289L19.4234 3.95791C21.8588 6.54087 21.8588 10.5744 19.4234 13.1574L20.5148 14.1864ZM20.4987 2.91235C17.9763 0.396898 14.0231 0.0271932 11.0781 2.03137L11.922 3.27145C14.2721 1.67215 17.4267 1.96717 19.4394 3.97446L20.4987 2.91235ZM12.0414 21.9863L7.13799 16.8714L6.05518 17.9094L10.9587 23.0244L12.0414 21.9863ZM11.1015 3.28677C11.5385 3.56077 11.9397 3.88782 12.2961 4.2604L13.38 3.22341C12.9378 2.76138 12.4403 2.35584 11.8986 2.01604L11.1015 3.28677ZM12.2961 4.2604L14.0786 6.12076L15.1616 5.08305L13.38 3.22341L12.2961 4.2604Z" fill="#1C1817"/>
</svg>
