<svg width="45" height="42" viewBox="0 0 45 42" fill="none" xmlns="http://www.w3.org/2000/svg">
<path fill-rule="evenodd" clip-rule="evenodd" d="M27 14.75C27 17.2353 24.9854 19.25 22.5 19.25C20.0146 19.25 18 17.2353 18 14.75C18 12.2647 20.0146 10.25 22.5 10.25C23.6934 10.25 24.838 10.7241 25.6819 11.568C26.5258 12.4119 27 13.5565 27 14.75Z" stroke="white" stroke-width="1.5" stroke-linecap="round" stroke-linejoin="round"/>
<path fill-rule="evenodd" clip-rule="evenodd" d="M26.2151 24.25H18.7842C16.5971 24.3586 14.6594 25.6945 13.7802 27.7C12.7197 29.782 14.8362 31.75 17.2977 31.75H27.7016C30.1646 31.75 32.2811 29.782 31.2191 27.7C30.34 25.6945 28.4023 24.3586 26.2151 24.25Z" stroke="white" stroke-width="1.5" stroke-linecap="round" stroke-linejoin="round"/>
</svg>
