<svg width="48" height="48" viewBox="0 0 48 48" fill="none" xmlns="http://www.w3.org/2000/svg">
<rect x="0.196777" y="0.0999756" width="47.2295" height="47.3" rx="11" fill="#6F4C9A"/>
<path d="M29.2657 17.2972V14.1478C29.207 11.1935 26.766 8.84531 23.8116 8.90093C20.8571 8.84531 18.4162 11.1935 18.3574 14.1478V17.2957" stroke="white" stroke-width="2.2" stroke-linecap="round" stroke-linejoin="round"/>
<path fill-rule="evenodd" clip-rule="evenodd" d="M12.9033 28.4179C12.8443 31.6792 15.439 34.3717 18.7003 34.4331H28.923C32.1844 34.3717 34.779 31.6792 34.72 28.4179L34.039 21.1125C33.8661 18.3583 31.939 16.0289 29.2658 15.3434C28.7088 15.1814 28.1318 15.0985 27.5516 15.0972H20.0717C19.4916 15.0985 18.9145 15.1814 18.3575 15.3434C15.6861 16.0291 13.7598 18.3568 13.5859 21.1094L12.9033 28.4179Z" stroke="white" stroke-width="2.2" stroke-linecap="round" stroke-linejoin="round"/>
</svg>
