<svg width="26" height="27" viewBox="0 0 26 27" fill="none" xmlns="http://www.w3.org/2000/svg">
<path fill-rule="evenodd" clip-rule="evenodd" d="M12.6554 24.9618L3.3534 15.245C0.37927 12.0859 0.37927 7.15268 3.3534 3.99362C5.84395 1.50611 9.74752 1.14051 12.6554 3.12242M12.6554 24.9618L18.0413 19.3353ZM12.6554 24.9618L21.9575 15.245C24.9316 12.0859 24.9316 7.15268 21.9575 3.99362C19.4669 1.50611 15.5633 1.14051 12.6554 3.12242M12.6554 24.9618L7.26958 19.3353ZM12.6554 3.12239C13.1929 3.45998 13.6865 3.86289 14.1251 4.32194L16.0823 6.36794" fill="#6F4C9A"/>
<path d="M11.8608 25.7225C12.2809 26.1613 12.9772 26.1765 13.4161 25.7564C13.8549 25.3363 13.8701 24.64 13.45 24.2011L11.8608 25.7225ZM3.3534 15.245L2.55247 15.999L2.55881 16.0056L3.3534 15.245ZM3.3534 3.99362L2.57606 3.21532C2.56808 3.22329 2.56023 3.23138 2.5525 3.2396L3.3534 3.99362ZM12.0359 4.03138C12.5379 4.37352 13.2222 4.24393 13.5644 3.74193C13.9065 3.23992 13.7769 2.5556 13.2749 2.21346L12.0359 4.03138ZM11.8608 24.2012C11.4407 24.64 11.4559 25.3363 11.8948 25.7564C12.3337 26.1765 13.03 26.1613 13.4501 25.7224L11.8608 24.2012ZM18.8359 20.0959C19.256 19.6571 19.2408 18.9608 18.8019 18.5407C18.363 18.1206 17.6667 18.1358 17.2466 18.5747L18.8359 20.0959ZM11.8609 24.2011C11.4407 24.64 11.4559 25.3363 11.8948 25.7564C12.3336 26.1765 13.0299 26.1613 13.45 25.7225L11.8609 24.2011ZM21.9575 15.245L22.7521 16.0057L22.7584 15.999L21.9575 15.245ZM21.9575 3.99362L22.7584 3.2396C22.7506 3.23138 22.7428 3.22329 22.7348 3.21532L21.9575 3.99362ZM12.0359 2.21346C11.5339 2.5556 11.4043 3.23992 11.7465 3.74193C12.0886 4.24393 12.773 4.37352 13.275 4.03138L12.0359 2.21346ZM11.8608 25.7224C12.2809 26.1613 12.9772 26.1765 13.416 25.7564C13.8549 25.3363 13.8701 24.64 13.45 24.2012L11.8608 25.7224ZM8.06421 18.5747C7.64412 18.1358 6.94781 18.1206 6.50894 18.5407C6.07008 18.9608 6.05487 19.6571 6.47495 20.0959L8.06421 18.5747ZM13.2406 2.19092C12.7261 1.86777 12.0471 2.02283 11.724 2.53726C11.4008 3.0517 11.5559 3.7307 12.0703 4.05385L13.2406 2.19092ZM14.1251 4.32194L13.3297 5.08182L13.3302 5.08233L14.1251 4.32194ZM15.2875 7.12833C15.7074 7.56732 16.4037 7.58275 16.8427 7.1628C17.2817 6.74285 17.2971 6.04654 16.8772 5.60755L15.2875 7.12833ZM13.45 24.2011L4.148 14.4843L2.55881 16.0056L11.8608 25.7225L13.45 24.2011ZM4.15431 14.4909C1.57897 11.7555 1.57897 7.48311 4.15431 4.74764L2.5525 3.2396C-0.820428 6.82225 -0.820428 12.4163 2.5525 15.999L4.15431 14.4909ZM4.13074 4.77191C6.24763 2.65761 9.56476 2.34715 12.0359 4.03138L13.2749 2.21346C9.93028 -0.0661206 5.44028 0.354607 2.57606 3.21532L4.13074 4.77191ZM13.4501 25.7224L18.8359 20.0959L17.2466 18.5747L11.8608 24.2012L13.4501 25.7224ZM13.45 25.7225L22.7521 16.0056L21.1629 14.4843L11.8609 24.2011L13.45 25.7225ZM22.7584 15.999C26.1313 12.4163 26.1313 6.82225 22.7584 3.2396L21.1566 4.74764C23.7319 7.48311 23.7319 11.7555 21.1566 14.4909L22.7584 15.999ZM22.7348 3.21532C19.8706 0.354608 15.3806 -0.0661205 12.0359 2.21346L13.275 4.03138C15.7461 2.34715 19.0632 2.65761 21.1801 4.77191L22.7348 3.21532ZM13.45 24.2012L8.06421 18.5747L6.47495 20.0959L11.8608 25.7224L13.45 24.2012ZM12.0703 4.05385C12.5308 4.34313 12.9538 4.6884 13.3297 5.08182L14.9204 3.56206C14.4191 3.03738 13.8549 2.57683 13.2406 2.19092L12.0703 4.05385ZM13.3302 5.08233L15.2875 7.12833L16.8772 5.60755L14.9199 3.56155L13.3302 5.08233Z" fill="#6F4C9A"/>
</svg>
