<svg width="36" height="36" viewBox="0 0 36 36" fill="none" xmlns="http://www.w3.org/2000/svg">
<path fill-rule="evenodd" clip-rule="evenodd" d="M10.5 28.5C8.84314 28.5 7.5 27.1569 7.5 25.5V21C7.5 19.3431 8.84314 18 10.5 18C12.1569 18 13.5 19.3431 13.5 21V25.5C13.5 27.1569 12.1569 28.5 10.5 28.5Z" stroke="#1C1817" stroke-width="1.5" stroke-linecap="round" stroke-linejoin="round"/>
<path fill-rule="evenodd" clip-rule="evenodd" d="M25.5 28.5C23.8431 28.5 22.5 27.1569 22.5 25.5V21C22.5 19.3431 23.8431 18 25.5 18C27.1569 18 28.5 19.3431 28.5 21V25.5C28.5 27.1569 27.1569 28.5 25.5 28.5Z" stroke="#1C1817" stroke-width="1.5" stroke-linecap="round" stroke-linejoin="round"/>
<path d="M28.5 21V18C28.5 12.201 23.799 7.5 18 7.5C12.201 7.5 7.5 12.201 7.5 18V21" stroke="#1C1817" stroke-width="1.5" stroke-linecap="round" stroke-linejoin="round"/>
</svg>
