<svg width="36" height="36" viewBox="0 0 36 36" fill="none" xmlns="http://www.w3.org/2000/svg">
<path fill-rule="evenodd" clip-rule="evenodd" d="M12.7507 15.2895C9.80474 15.3372 7.45473 17.763 7.50066 20.709V24.5805C7.45473 27.5265 9.80474 29.9523 12.7507 30H23.2506C26.1966 29.9523 28.5467 27.5265 28.5006 24.5805V20.709C28.5467 17.763 26.1966 15.3372 23.2506 15.2895H12.7507Z" stroke="#1C1817" stroke-width="1.5" stroke-linecap="round" stroke-linejoin="round"/>
<path d="M17.2505 15.2895C17.2505 15.7037 17.5863 16.0395 18.0005 16.0395C18.4146 16.0395 18.7505 15.7037 18.7505 15.2895H17.2505ZM16.5005 9.8715L16.6886 9.14522L16.6703 9.14097L16.5005 9.8715ZM14.6375 9.678V10.4282L14.6535 10.4278L14.6375 9.678ZM12.7505 6C12.7505 5.58579 12.4147 5.25 12.0005 5.25C11.5862 5.25 11.2505 5.58579 11.2505 6H12.7505ZM13.5005 24.582C13.5005 24.9962 13.8362 25.332 14.2505 25.332C14.6647 25.332 15.0005 24.9962 15.0005 24.582H13.5005ZM15.0005 22.26C15.0005 21.8459 14.6647 21.51 14.2505 21.51C13.8362 21.51 13.5005 21.8459 13.5005 22.26H15.0005ZM13.5005 22.26C13.5005 22.6742 13.8362 23.01 14.2505 23.01C14.6647 23.01 15.0005 22.6742 15.0005 22.26H13.5005ZM15.0005 19.9365C15.0005 19.5224 14.6647 19.1865 14.2505 19.1865C13.8362 19.1865 13.5005 19.5224 13.5005 19.9365H15.0005ZM14.2505 21.51C13.8362 21.51 13.5005 21.8459 13.5005 22.26C13.5005 22.6742 13.8362 23.01 14.2505 23.01V21.51ZM16.5005 23.01C16.9146 23.01 17.2505 22.6742 17.2505 22.26C17.2505 21.8459 16.9146 21.51 16.5005 21.51V23.01ZM14.2505 23.01C14.6647 23.01 15.0005 22.6742 15.0005 22.26C15.0005 21.8459 14.6647 21.51 14.2505 21.51V23.01ZM12.0005 21.51C11.5862 21.51 11.2505 21.8459 11.2505 22.26C11.2505 22.6742 11.5862 23.01 12.0005 23.01V21.51ZM20.4618 20.9642C20.1737 21.2616 20.181 21.7364 20.4786 22.0247C20.7761 22.3128 21.2508 22.3055 21.5391 22.0079L20.4618 20.9642ZM23.0391 20.4599C23.3273 20.1624 23.3198 19.6877 23.0223 19.3994C22.7249 19.1112 22.2501 19.1186 21.9618 19.4162L23.0391 20.4599ZM21.9618 24.0662C21.6737 24.3636 21.681 24.8384 21.9786 25.1267C22.2761 25.4148 22.7508 25.4075 23.0391 25.1099L21.9618 24.0662ZM24.5391 23.5619C24.8273 23.2644 24.8198 22.7897 24.5223 22.5014C24.2249 22.2132 23.7501 22.2206 23.4618 22.5182L24.5391 23.5619ZM18.7505 15.2895C18.7505 14.3638 18.8609 12.9956 18.72 11.9003C18.576 10.7821 18.1209 9.51606 16.6886 9.14522L16.3125 10.5976C16.8152 10.7277 17.1099 11.1412 17.2322 12.0918C17.3576 13.0654 17.2505 14.1557 17.2505 15.2895H18.7505ZM16.6703 9.14097C15.9989 8.98494 15.3105 8.91345 14.6215 8.92816L14.6535 10.4278C15.2177 10.4158 15.7811 10.4743 16.3307 10.602L16.6703 9.14097ZM14.6375 8.928C13.9465 8.928 13.5397 8.80506 13.2998 8.6657C13.0772 8.53641 12.9482 8.36474 12.8639 8.13911C12.772 7.89288 12.7339 7.58121 12.7283 7.19658C12.7256 7.00767 12.7305 6.81456 12.7368 6.61186C12.7429 6.41493 12.7505 6.20213 12.7505 6H11.2505C11.2505 6.17288 11.244 6.35625 11.2375 6.56554C11.2312 6.76907 11.2252 6.99221 11.2285 7.21842C11.235 7.66404 11.2773 8.17812 11.4587 8.6639C11.6479 9.17027 11.9852 9.63684 12.5464 9.96281C13.0903 10.2787 13.785 10.4282 14.6375 10.4282V8.928ZM15.0005 24.582V22.26H13.5005V24.582H15.0005ZM15.0005 22.26V19.9365H13.5005V22.26H15.0005ZM14.2505 23.01H16.5005V21.51H14.2505V23.01ZM14.2505 21.51H12.0005V23.01H14.2505V21.51ZM21.5391 22.0079L23.0391 20.4599L21.9618 19.4162L20.4618 20.9642L21.5391 22.0079ZM23.0391 25.1099L24.5391 23.5619L23.4618 22.5182L21.9618 24.0662L23.0391 25.1099Z" fill="#1C1817"/>
</svg>
