<svg width="36" height="36" viewBox="0 0 36 36" fill="none" xmlns="http://www.w3.org/2000/svg">
<path d="M8.6838 6.42856C7.74607 6.42856 6.84675 6.80107 6.18368 7.46414C5.5206 8.12722 5.14809 9.02654 5.14809 9.96427V20.8928C5.14809 21.8306 5.5206 22.7299 6.18368 23.393C6.84675 24.056 7.74607 24.4286 8.6838 24.4286H27.3267C27.791 24.4286 28.2507 24.3371 28.6797 24.1594C29.1087 23.9817 29.4985 23.7213 29.8268 23.393C30.1551 23.0646 30.4155 22.6749 30.5932 22.2459C30.7709 21.8169 30.8624 21.3572 30.8624 20.8928V9.96427C30.8624 9.02654 30.4899 8.12722 29.8268 7.46414C29.1637 6.80107 28.2644 6.42856 27.3267 6.42856H8.6838ZM7.07666 9.96427C7.07666 9.07713 7.79666 8.35713 8.6838 8.35713H27.3267C28.2138 8.35713 28.9338 9.07713 28.9338 9.96427V20.8928C28.9338 21.78 28.2138 22.5 27.3267 22.5H8.6838C7.79666 22.5 7.07666 21.78 7.07666 20.8928V9.96427ZM3.54095 26.3571C3.2852 26.3571 3.03993 26.4587 2.85909 26.6396C2.67825 26.8204 2.57666 27.0657 2.57666 27.3214C2.57666 27.5772 2.67825 27.8224 2.85909 28.0033C3.03993 28.1841 3.2852 28.2857 3.54095 28.2857H32.4644C32.7201 28.2857 32.9654 28.1841 33.1462 28.0033C33.3271 27.8224 33.4287 27.5772 33.4287 27.3214C33.4287 27.0657 33.3271 26.8204 33.1462 26.6396C32.9654 26.4587 32.7201 26.3571 32.4644 26.3571H3.54095Z" fill="#1C1817"/>
</svg>
