<svg width="36" height="36" viewBox="0 0 36 36" fill="none" xmlns="http://www.w3.org/2000/svg">
<path fill-rule="evenodd" clip-rule="evenodd" d="M7.5 15.3V21.7995C7.50635 23.1853 8.0631 24.5119 9.0477 25.4872C10.0323 26.4627 11.3641 27.0067 12.75 27H23.25C24.6359 27.0067 25.9677 26.4627 26.9523 25.4872C27.9369 24.5119 28.4937 23.1853 28.5 21.7995V15.3C28.4937 13.9141 27.9369 12.5875 26.9523 11.6122C25.9677 10.6369 24.6359 10.0927 23.25 10.0995C22.522 10.003 21.9002 9.52725 21.6165 8.85001C21.1514 8.01427 20.2689 7.49722 19.3125 7.50001H16.6875C15.7311 7.49722 14.8486 8.01427 14.3835 8.85001C14.0998 9.52725 13.4779 10.003 12.75 10.0995C11.3641 10.0927 10.0323 10.6369 9.0477 11.6122C8.0631 12.5875 7.50635 13.9141 7.5 15.3Z" stroke="#1C1817" stroke-width="1.5" stroke-linecap="round" stroke-linejoin="round"/>
<path fill-rule="evenodd" clip-rule="evenodd" d="M17.9998 21.7995C16.2086 21.7821 14.769 20.319 14.7808 18.5277C14.7927 16.7364 16.2514 15.2924 18.0427 15.2987C19.834 15.305 21.2825 16.7592 21.2818 18.5505C21.2774 19.4166 20.9291 20.2454 20.3137 20.8548C19.6982 21.4641 18.8659 21.8039 17.9998 21.7995Z" stroke="#1C1817" stroke-width="1.5" stroke-linecap="round" stroke-linejoin="round"/>
</svg>
