<svg width="36" height="36" viewBox="0 0 36 36" fill="none" xmlns="http://www.w3.org/2000/svg">
<path d="M23.75 4.5H12.25C9.07436 4.5 6.5 6.51472 6.5 9V27C6.5 29.4853 9.07436 31.5 12.25 31.5H23.75C26.9256 31.5 29.5 29.4853 29.5 27V9C29.5 6.51472 26.9256 4.5 23.75 4.5Z" stroke="#1C1817" stroke-width="1.5" stroke-linecap="round" stroke-linejoin="round"/>
<path d="M18.0003 27.75C17.7445 27.75 17.5037 27.672 17.3228 27.5304C17.1417 27.3886 17.042 27.2004 17.042 27C17.042 26.8512 17.0978 26.7071 17.2036 26.5833C17.3092 26.4596 17.4579 26.364 17.6335 26.3071C17.7504 26.2692 17.8738 26.25 18.0003 26.25C18.063 26.25 18.1259 26.2548 18.1872 26.2644C18.3739 26.2935 18.5435 26.3645 18.6781 26.4696C18.8124 26.5749 18.9031 26.7077 18.9403 26.8538C18.9774 26.9997 18.9585 27.1495 18.8856 27.2869C18.813 27.4245 18.6909 27.5409 18.5328 27.6236C18.3746 27.7064 18.1905 27.75 18.0003 27.75Z" fill="#1C1817"/>
<path d="M17.9997 28.5C17.4914 28.5 17.0038 28.3419 16.6444 28.0607C16.285 27.7794 16.083 27.3978 16.083 27C16.083 26.7033 16.1953 26.4134 16.406 26.1666C16.6166 25.92 16.916 25.7277 17.2662 25.6142C17.6163 25.5006 18.0018 25.4709 18.3736 25.5288C18.7454 25.5867 19.087 25.7295 19.3549 25.9394C19.6231 26.1491 19.8056 26.4164 19.8795 26.7074C19.9535 26.9984 19.9156 27.3 19.7705 27.5741C19.6254 27.8481 19.3797 28.0824 19.0646 28.2473C18.7493 28.4121 18.3788 28.5 17.9997 28.5Z" fill="#1C1817"/>
</svg>
