<svg width="36" height="36" viewBox="0 0 36 36" fill="none" xmlns="http://www.w3.org/2000/svg">
<path fill-rule="evenodd" clip-rule="evenodd" d="M15.4035 26.25H20.5965C22.848 26.2918 24.7072 24.501 24.75 22.2495V18.2505C24.7072 15.999 22.848 14.2082 20.5965 14.25H15.4035C13.152 14.2082 11.2927 15.999 11.25 18.2505V22.251C11.2935 24.5019 13.1526 26.2918 15.4035 26.25Z" stroke="#1C1817" stroke-linecap="round" stroke-linejoin="round"/>
<path d="M14.1495 5.62502C13.9424 5.26629 13.4838 5.14338 13.125 5.35047C12.7663 5.55758 12.6434 6.01628 12.8505 6.37499L14.1495 5.62502ZM15.4485 10.875C15.6556 11.2337 16.1143 11.3566 16.473 11.1495C16.8318 10.9424 16.9546 10.4837 16.7475 10.125L15.4485 10.875ZM23.1495 6.37499C23.3566 6.01628 23.2338 5.55758 22.875 5.35047C22.5163 5.14338 22.0576 5.26629 21.8505 5.62502L23.1495 6.37499ZM19.2525 10.125C19.0453 10.4837 19.1683 10.9424 19.527 11.1495C19.8858 11.3566 20.3445 11.2337 20.5515 10.875L19.2525 10.125ZM19.902 9.75C19.4878 9.75 19.152 10.0858 19.152 10.5C19.152 10.9142 19.4878 11.25 19.902 11.25V9.75ZM22.038 10.5L22.0402 9.75H22.038V10.5ZM28.5 16.9995L27.75 16.9974V16.9995H28.5ZM28.5 23.499H27.75V23.5013L28.5 23.499ZM22.038 30V30.75H22.0402L22.038 30ZM13.962 30L13.9598 30.75H13.962V30ZM7.50003 23.5005L8.25003 23.5026V23.5005H7.50003ZM7.50003 16.9995H8.25003V16.9974L7.50003 16.9995ZM13.962 10.5V9.75H13.9598L13.962 10.5ZM16.098 11.25C16.5123 11.25 16.848 10.9142 16.848 10.5C16.848 10.0858 16.5123 9.75 16.098 9.75V11.25ZM19.902 11.25C20.3163 11.25 20.652 10.9142 20.652 10.5C20.652 10.0858 20.3163 9.75 19.902 9.75V11.25ZM16.098 9.75C15.6838 9.75 15.348 10.0858 15.348 10.5C15.348 10.9142 15.6838 11.25 16.098 11.25V9.75ZM12.8505 6.37499L15.4485 10.875L16.7475 10.125L14.1495 5.62502L12.8505 6.37499ZM21.8505 5.62502L19.2525 10.125L20.5515 10.875L23.1495 6.37499L21.8505 5.62502ZM19.902 11.25H22.038V9.75H19.902V11.25ZM22.0357 11.25C25.2007 11.2595 27.7588 13.8325 27.75 16.9974L29.25 17.0016C29.2611 13.0084 26.0335 9.762 22.0402 9.75L22.0357 11.25ZM27.75 16.9995V23.499H29.25V16.9995H27.75ZM27.75 23.5013C27.7546 25.0214 27.1551 26.481 26.0835 27.5591L27.1473 28.6166C28.4994 27.2563 29.2558 25.4147 29.25 23.4968L27.75 23.5013ZM26.0835 27.5591C25.0119 28.6373 23.5558 29.2455 22.0357 29.25L22.0402 30.75C23.9581 30.7443 25.7952 29.9768 27.1473 28.6166L26.0835 27.5591ZM22.038 29.25H13.962V30.75H22.038V29.25ZM13.9643 29.25C10.7994 29.2406 8.24122 26.6674 8.25003 23.5026L6.75003 23.4984C6.73891 27.4916 9.96657 30.738 13.9598 30.75L13.9643 29.25ZM8.25003 23.5005V16.9995H6.75003V23.5005H8.25003ZM8.25003 16.9974C8.24122 13.8325 10.7994 11.2595 13.9643 11.25L13.9598 9.75C9.96657 9.762 6.73891 13.0084 6.75003 17.0016L8.25003 16.9974ZM13.962 11.25H16.098V9.75H13.962V11.25ZM19.902 9.75H16.098V11.25H19.902V9.75Z" fill="#1C1817"/>
</svg>
