<svg width="36" height="36" viewBox="0 0 36 36" fill="none" xmlns="http://www.w3.org/2000/svg">
<path d="M16.0595 8.11055C16.2106 7.7249 16.0204 7.28975 15.6348 7.13861C15.2491 6.98747 14.814 7.17758 14.6629 7.56323L16.0595 8.11055ZM20.2524 15.7524C20.6665 15.7517 21.0018 15.4154 21.0012 15.0012C21.0005 14.587 20.6642 14.2517 20.25 14.2524L20.2524 15.7524ZM15.3612 7.83689L15.1735 7.11074L15.1721 7.11113L15.3612 7.83689ZM28.1472 15.2904L27.4229 15.485C27.4829 15.7086 27.643 15.8921 27.8565 15.9818C28.0701 16.0716 28.3131 16.0577 28.515 15.944L28.1472 15.2904ZM28.4157 19.3404L28.6941 18.644C28.4785 18.5579 28.2354 18.5763 28.0354 18.6939C27.8354 18.8115 27.7011 19.0152 27.6717 19.2453L28.4157 19.3404ZM7.58516 19.3404L8.32911 19.2453C8.29968 19.0152 8.1654 18.8115 7.9654 18.6939C7.76541 18.5763 7.52223 18.5579 7.30679 18.644L7.58516 19.3404ZM7.85366 15.2904L7.48578 15.944C7.68768 16.0577 7.93076 16.0716 8.14434 15.9818C8.35791 15.8921 8.51801 15.7085 8.57804 15.4848L7.85366 15.2904ZM14.6629 7.56323C13.5648 10.3651 14.7122 13.547 17.3457 15.0033L18.0723 13.691C16.0972 12.5988 15.2359 10.212 16.0595 8.11055L14.6629 7.56323ZM17.3457 15.0033C18.2353 15.4965 19.2353 15.7541 20.2524 15.7524L20.25 14.2524C19.4881 14.2536 18.7386 14.0604 18.0723 13.691L17.3457 15.0033ZM15.5489 8.56304C20.7354 7.22276 26.0336 10.3112 27.4229 15.485L28.8715 15.0959C27.2688 9.12747 21.1569 5.56457 15.1735 7.11074L15.5489 8.56304ZM28.515 15.944C29.1242 15.6011 29.8893 15.7244 30.3599 16.2413L31.4689 15.2313C30.5278 14.1977 28.9976 13.9511 27.7793 14.6368L28.515 15.944ZM30.3599 16.2413C30.8306 16.758 30.8817 17.5314 30.4834 18.1058L31.7162 18.9605C32.5126 17.8116 32.4102 16.265 31.4689 15.2313L30.3599 16.2413ZM30.4834 18.1058C30.0852 18.6803 29.343 18.9035 28.6941 18.644L28.1373 20.0369C29.4354 20.5557 30.9198 20.1093 31.7162 18.9605L30.4834 18.1058ZM27.6717 19.2453C27.0495 24.1125 22.9073 27.759 18.0005 27.759V29.259C23.6621 29.259 28.4416 25.0515 29.1595 19.4355L27.6717 19.2453ZM18.0005 27.759C13.0936 27.759 8.95128 24.1125 8.32911 19.2453L6.84122 19.4355C7.5591 25.0515 12.3387 29.259 18.0005 29.259V27.759ZM7.30679 18.644C6.65775 18.9035 5.91555 18.6803 5.51732 18.1058L4.2846 18.9605C5.08109 20.1093 6.56549 20.5557 7.86354 20.0369L7.30679 18.644ZM5.51732 18.1058C5.11907 17.5314 5.17034 16.758 5.64092 16.2413L4.53183 15.2313C3.59066 16.265 3.48812 17.8116 4.2846 18.9605L5.51732 18.1058ZM5.64092 16.2413C6.11151 15.7244 6.87668 15.6011 7.48578 15.944L8.22155 14.6368C7.00334 13.9511 5.47301 14.1977 4.53183 15.2313L5.64092 16.2413ZM8.57804 15.4848C9.48845 12.0916 12.1506 9.44855 15.5504 8.56266L15.1721 7.11113C11.2504 8.13305 8.17949 11.1819 7.12928 15.096L8.57804 15.4848Z" fill="#1C1817"/>
<path d="M13.501 18.7524C13.0874 18.7524 12.751 18.416 12.751 18.0024C12.751 17.5889 13.0874 17.2524 13.501 17.2524C13.9145 17.2524 14.251 17.5889 14.251 18.0024C14.251 18.416 13.9145 18.7524 13.501 18.7524Z" fill="#1C1817"/>
<path d="M13.501 19.5024C12.6726 19.5024 12.001 18.8309 12.001 18.0024C12.001 17.174 12.6726 16.5024 13.501 16.5024C14.3294 16.5024 15.001 17.174 15.001 18.0024C15.001 18.8309 14.3294 19.5024 13.501 19.5024Z" fill="#1C1817"/>
<path d="M22.501 18.7524C22.0874 18.7524 21.751 18.416 21.751 18.0024C21.751 17.5889 22.0874 17.2524 22.501 17.2524C22.9145 17.2524 23.251 17.5889 23.251 18.0024C23.251 18.416 22.9145 18.7524 22.501 18.7524Z" fill="#1C1817"/>
<path d="M22.501 19.5024C21.6725 19.5024 21.001 18.8309 21.001 18.0024C21.001 17.174 21.6725 16.5024 22.501 16.5024C23.3294 16.5024 24.001 17.174 24.001 18.0024C24.001 18.8309 23.3294 19.5024 22.501 19.5024Z" fill="#1C1817"/>
</svg>
