<svg width="36" height="36" viewBox="0 0 36 36" fill="none" xmlns="http://www.w3.org/2000/svg">
<path fill-rule="evenodd" clip-rule="evenodd" d="M25.9755 24.0945V22.0815C25.9755 21.583 26.1735 21.105 26.526 20.7525L27.9495 19.329C28.6834 18.595 28.6834 17.405 27.9495 16.671L26.526 15.2475C26.1735 14.895 25.9755 14.417 25.9755 13.9185V11.904C25.9755 10.866 25.134 10.0245 24.096 10.0245H22.0815C21.583 10.0245 21.105 9.82645 20.7525 9.47398L19.329 8.05049C18.595 7.3165 17.405 7.3165 16.671 8.05049L15.2475 9.47398C14.895 9.82645 14.417 10.0245 13.9185 10.0245H11.904C11.4052 10.0245 10.927 10.2227 10.5744 10.5755C10.2219 10.9283 10.0241 11.4067 10.0245 11.9055V13.9185C10.0245 14.417 9.82645 14.895 9.47398 15.2475L8.05049 16.671C7.3165 17.405 7.3165 18.595 8.05049 19.329L9.47398 20.7525C9.82645 21.105 10.0245 21.583 10.0245 22.0815V24.0945C10.0245 25.1325 10.866 25.974 11.904 25.974H13.9185C14.417 25.974 14.895 26.172 15.2475 26.5245L16.671 27.948C17.405 28.6819 18.595 28.6819 19.329 27.948L20.7525 26.5245C21.105 26.172 21.583 25.974 22.0815 25.974H24.0945C24.5932 25.9744 25.0716 25.7766 25.4244 25.424C25.7772 25.0715 25.9755 24.5932 25.9755 24.0945Z" stroke="#F01A1A" stroke-width="1.5" stroke-linecap="round" stroke-linejoin="round"/>
<path fill-rule="evenodd" clip-rule="evenodd" d="M13.9228 15.9615C13.5105 15.5493 13.3871 14.9293 13.6102 14.3906C13.8334 13.852 14.359 13.5007 14.942 13.5007C15.5251 13.5007 16.0507 13.852 16.2737 14.3906C16.4969 14.9293 16.3736 15.5493 15.9613 15.9615C15.3983 16.5244 14.4857 16.5244 13.9228 15.9615Z" stroke="#F01A1A" stroke-width="1.5" stroke-linecap="round" stroke-linejoin="round"/>
<path fill-rule="evenodd" clip-rule="evenodd" d="M20.0385 22.077C19.6262 21.6646 19.5029 21.0447 19.7259 20.506C19.9491 19.9672 20.4747 19.6161 21.0578 19.6161C21.6408 19.6161 22.1664 19.9672 22.3895 20.506C22.6127 21.0447 22.4894 21.6646 22.077 22.077C21.5141 22.6398 20.6015 22.6398 20.0385 22.077Z" stroke="#F01A1A" stroke-width="1.5" stroke-linecap="round"/>
<path d="M22.0769 13.9215L13.9214 22.0785" stroke="#F01A1A" stroke-width="1.5" stroke-linecap="round"/>
</svg>
