<svg width="36" height="36" viewBox="0 0 36 36" fill="none" xmlns="http://www.w3.org/2000/svg">
<path d="M22.5 4.5H13.5C11.0147 4.5 9 6.51472 9 9V27C9 29.4853 11.0147 31.5 13.5 31.5H22.5C24.9853 31.5 27 29.4853 27 27V9C27 6.51472 24.9853 4.5 22.5 4.5Z" stroke="#1C1817" stroke-width="1.5" stroke-linecap="round" stroke-linejoin="round"/>
<path d="M18 27.75C17.7998 27.75 17.6113 27.672 17.4697 27.5304C17.328 27.3886 17.25 27.2004 17.25 27C17.25 26.8512 17.2937 26.7071 17.3765 26.5833C17.4591 26.4596 17.5755 26.364 17.7129 26.3071C17.8044 26.2692 17.901 26.25 18 26.25C18.049 26.25 18.0982 26.2548 18.1462 26.2644C18.2923 26.2935 18.4251 26.3645 18.5304 26.4696C18.6355 26.5749 18.7065 26.7077 18.7356 26.8538C18.7647 26.9997 18.7498 27.1495 18.6928 27.2869C18.636 27.4245 18.5404 27.5409 18.4167 27.6236C18.2929 27.7064 18.1488 27.75 18 27.75Z" fill="#1C1817"/>
<path d="M18 28.5C17.6022 28.5 17.2206 28.3419 16.9394 28.0607C16.6581 27.7794 16.5 27.3978 16.5 27C16.5 26.7033 16.5879 26.4134 16.7527 26.1666C16.9176 25.92 17.1519 25.7277 17.426 25.6142C17.7 25.5006 18.0016 25.4709 18.2926 25.5288C18.5836 25.5867 18.8509 25.7295 19.0606 25.9394C19.2705 26.1491 19.4133 26.4164 19.4712 26.7074C19.5291 26.9984 19.4994 27.3 19.3858 27.5741C19.2723 27.8481 19.08 28.0824 18.8334 28.2473C18.5867 28.4121 18.2967 28.5 18 28.5Z" fill="#1C1817"/>
</svg>
