<svg width="23" height="24" viewBox="0 0 23 24" fill="none" xmlns="http://www.w3.org/2000/svg">
<path fill-rule="evenodd" clip-rule="evenodd" d="M2.30735 3.53731C3.62735 2.14681 4.09385 1.75681 4.65635 1.57531C5.04563 1.47331 5.45389 1.46764 5.84585 1.55881C6.36185 1.70881 6.49835 1.82281 8.19035 3.50881C9.67681 4.98931 9.82531 5.14981 9.96781 5.43931C10.2404 5.94748 10.283 6.5478 10.0848 7.08931C9.93481 7.50181 9.72181 7.77481 8.82031 8.67931L8.23235 9.26889C8.07793 9.42579 8.04164 9.66399 8.14235 9.85989C9.44881 12.0886 11.3022 13.9472 13.5273 15.2599C13.7835 15.397 14.099 15.3527 14.3073 15.1504L14.8728 14.5939C15.2223 14.2355 15.5925 13.898 15.9813 13.5829C16.5921 13.2079 17.3531 13.1744 17.9943 13.4944C18.3078 13.6444 18.4113 13.7374 19.9443 15.2674C21.5253 16.8439 21.5703 16.8934 21.7443 17.2549C22.0718 17.8532 22.0683 18.578 21.7353 19.1734C21.5658 19.5094 21.4623 19.6309 20.5728 20.5399C20.0358 21.0889 19.5303 21.5899 19.4493 21.6634C18.7155 22.2709 17.7741 22.5689 16.8243 22.4944C15.0867 22.336 13.4048 21.7988 11.8968 20.9209C8.55661 19.151 5.71295 16.5725 3.62585 13.4209C3.17126 12.7612 2.76712 12.0682 2.41685 11.3479C1.47722 9.73734 0.992002 7.90222 1.01285 6.03781C1.08458 5.06245 1.55233 4.15894 2.30735 3.53731Z" stroke="white" stroke-width="1.5" stroke-linecap="round" stroke-linejoin="round"/>
</svg>
