<svg width="45" height="42" viewBox="0 0 45 42" fill="none" xmlns="http://www.w3.org/2000/svg">
<path d="M27.75 16.7354V13.7039C27.6934 10.8602 25.3438 8.59989 22.5 8.65343C19.6561 8.59989 17.3066 10.8602 17.25 13.7039V16.7339" stroke="white" stroke-width="1.5" stroke-linecap="round" stroke-linejoin="round"/>
<path fill-rule="evenodd" clip-rule="evenodd" d="M12 27.5575C11.9431 30.6967 14.4407 33.2884 17.58 33.3475H27.4199C30.5593 33.2884 33.0568 30.6967 32.9999 27.5575L32.3444 20.5255C32.1781 17.8744 30.323 15.6323 27.7499 14.9724C27.2138 14.8165 26.6584 14.7367 26.0999 14.7354H18.9C18.3416 14.7367 17.7862 14.8165 17.25 14.9724C14.6786 15.6325 12.8244 17.873 12.657 20.5225L12 27.5575Z" stroke="white" stroke-width="1.5" stroke-linecap="round" stroke-linejoin="round"/>
</svg>
