<svg width="23" height="24" viewBox="0 0 23 24" fill="none" xmlns="http://www.w3.org/2000/svg">
<path d="M10.9585 23.0244C11.2451 23.3234 11.7199 23.3334 12.0188 23.0468C12.3179 22.7601 12.3278 22.2854 12.0412 21.9863L10.9585 23.0244ZM3.03085 13.6719L2.48513 14.1864L2.48945 14.1909L3.03085 13.6719ZM3.03085 3.44341L2.50123 2.91235C2.49579 2.91778 2.49043 2.9233 2.48515 2.9289L3.03085 3.44341ZM11.0779 3.27145C11.4204 3.50449 11.8868 3.41581 12.1199 3.07338C12.3529 2.73093 12.2643 2.26441 11.9218 2.03137L11.0779 3.27145ZM10.9585 21.9864C10.6718 22.2854 10.6818 22.7601 10.9809 23.0468C11.2798 23.3334 11.7545 23.3234 12.0412 23.0244L10.9585 21.9864ZM16.9447 17.9094C17.2313 17.6103 17.2213 17.1356 16.9223 16.8489C16.6234 16.5623 16.1486 16.5723 15.862 16.8714L16.9447 17.9094ZM10.9585 21.9864C10.6718 22.2854 10.6818 22.7601 10.9809 23.0468C11.2798 23.3334 11.7545 23.3234 12.0412 23.0244L10.9585 21.9864ZM19.9689 13.6719L20.5102 14.1909L20.5146 14.1864L19.9689 13.6719ZM19.9689 3.44341L20.5146 2.9289C20.5093 2.9233 20.5039 2.91778 20.4985 2.91235L19.9689 3.44341ZM11.0779 2.03137C10.7355 2.26441 10.6468 2.73093 10.8798 3.07338C11.1129 3.41581 11.5794 3.50449 11.9218 3.27145L11.0779 2.03137ZM10.9585 23.0244C11.2451 23.3234 11.7199 23.3334 12.0188 23.0468C12.3179 22.7601 12.3278 22.2854 12.0412 21.9863L10.9585 23.0244ZM7.13775 16.8714C6.85111 16.5723 6.37633 16.5623 6.07732 16.8489C5.77831 17.1356 5.76829 17.6103 6.05494 17.9094L7.13775 16.8714ZM11.8984 2.01604C11.5474 1.79595 11.0846 1.90198 10.8644 2.25289C10.6444 2.60379 10.7504 3.06667 11.1013 3.28677L11.8984 2.01604ZM14.0783 6.12076C14.3648 6.41986 14.8396 6.43003 15.1387 6.14347C15.4378 5.85691 15.448 5.38215 15.1613 5.08305L14.0783 6.12076ZM12.0412 21.9863L3.57223 13.1528L2.48945 14.1909L10.9585 23.0244L12.0412 21.9863ZM3.57653 13.1574C1.14115 10.5744 1.14115 6.54087 3.57653 3.95791L2.48515 2.9289C-0.49505 6.0897 -0.495065 11.0256 2.48513 14.1864L3.57653 13.1574ZM3.56046 3.97446C5.5732 1.96717 8.72785 1.67215 11.0779 3.27145L11.9218 2.03137C8.97685 0.0271932 5.02353 0.396898 2.50123 2.91235L3.56046 3.97446ZM12.0412 23.0244L16.9447 17.9094L15.862 16.8714L10.9585 21.9864L12.0412 23.0244ZM12.0412 23.0244L20.5102 14.1909L19.4275 13.1528L10.9585 21.9864L12.0412 23.0244ZM20.5146 14.1864C23.4948 11.0256 23.4948 6.0897 20.5146 2.9289L19.4232 3.95791C21.8586 6.54087 21.8586 10.5744 19.4232 13.1574L20.5146 14.1864ZM20.4985 2.91235C17.9761 0.396898 14.0229 0.0271932 11.0779 2.03137L11.9218 3.27145C14.2719 1.67215 17.4265 1.96717 19.4392 3.97446L20.4985 2.91235ZM12.0412 21.9863L7.13775 16.8714L6.05494 17.9094L10.9585 23.0244L12.0412 21.9863ZM11.1013 3.28677C11.5382 3.56077 11.9395 3.88782 12.2959 4.2604L13.3798 3.22341C12.9376 2.76138 12.4401 2.35584 11.8984 2.01604L11.1013 3.28677ZM12.2959 4.2604L14.0783 6.12076L15.1613 5.08305L13.3798 3.22341L12.2959 4.2604Z" fill="white"/>
</svg>
