<svg width="18" height="13" viewBox="0 0 18 13" fill="none" xmlns="http://www.w3.org/2000/svg">
<path d="M1 5.66683C0.44772 5.66683 0 6.11456 0 6.66683C0 7.2191 0.44772 7.66683 1 7.66683V5.66683ZM17 7.66683C17.5523 7.66683 18 7.2191 18 6.66683C18 6.11456 17.5523 5.66683 17 5.66683V7.66683ZM1 11.0002C0.44772 11.0002 0 11.4479 0 12.0002C0 12.5524 0.44772 13.0002 1 13.0002V11.0002ZM17 13.0002C17.5523 13.0002 18 12.5524 18 12.0002C18 11.4479 17.5523 11.0002 17 11.0002V13.0002ZM1 0.333496C0.44772 0.333496 0 0.781216 0 1.3335C0 1.88578 0.44772 2.3335 1 2.3335V0.333496ZM17 2.3335C17.5523 2.3335 18 1.88578 18 1.3335C18 0.781216 17.5523 0.333496 17 0.333496V2.3335ZM1 7.66683H17V5.66683H1V7.66683ZM1 13.0002H17V11.0002H1V13.0002ZM1 2.3335H17V0.333496H1V2.3335Z" fill="#1C1817"/>
</svg>
