<svg width="16" height="12" viewBox="0 0 16 12" fill="none" xmlns="http://www.w3.org/2000/svg">
<path d="M9.2328 10.4569C8.9328 10.7426 8.9212 11.2173 9.2069 11.5172C9.4926 11.8172 9.9673 11.8288 10.2672 11.5431L9.2328 10.4569ZM15.5172 6.5431C15.8172 6.2574 15.8288 5.7827 15.5431 5.4828C15.2574 5.1828 14.7827 5.1712 14.4828 5.4569L15.5172 6.5431ZM14.4828 6.5431C14.7827 6.8288 15.2574 6.8172 15.5431 6.5172C15.8288 6.2173 15.8172 5.7426 15.5172 5.4569L14.4828 6.5431ZM10.2672 0.456902C9.9673 0.171232 9.4926 0.182812 9.2069 0.482762C8.9212 0.782712 8.9328 1.25744 9.2328 1.5431L10.2672 0.456902ZM15 6.75C15.4142 6.75 15.75 6.4142 15.75 6C15.75 5.5858 15.4142 5.25 15 5.25V6.75ZM1 5.25C0.58579 5.25 0.25 5.5858 0.25 6C0.25 6.4142 0.58579 6.75 1 6.75V5.25ZM10.2672 11.5431L15.5172 6.5431L14.4828 5.4569L9.2328 10.4569L10.2672 11.5431ZM15.5172 5.4569L10.2672 0.456902L9.2328 1.5431L14.4828 6.5431L15.5172 5.4569ZM15 5.25H1V6.75H15V5.25Z" fill="#6F4C9A"/>
</svg>
